<svg viewBox="0 0 191.99906 172.97172" xmlns="http://www.w3.org/2000/svg"><path d="m181.99592 93.29546v-.14618c.042-.00667.08006-.02364.12184-.03078a11.576 11.576 0 0 0 1.81033-.45692c.07257-.02469.14279-.05255.21465-.07876a11.63816 11.63816 0 0 0 1.711-.77584c.03569-.02.06881-.04319.10439-.06355a11.75266 11.75266 0 0 0 2.96666-2.42782c.04214-.04776.08685-.09246.12816-.14092a11.74934 11.74934 0 0 0 1.06165-1.47069c.04775-.07771.09562-.15414.14161-.233a11.62127 11.62127 0 0 0 .78321-1.61816c.03453-.08789.06508-.17672.0975-.26567a11.56286 11.56286 0 0 0 .49846-1.78248c.01346-.07034.02036-.14232.03265-.21312a11.66751 11.66751 0 0 0 .18153-1.98484l-.00012-.00246.00012-.0014-.00047-.00468a11.68178 11.68178 0 0 0 -.18761-2.0203c-.01182-.0673-.018-.13588-.031-.20271a11.55037 11.55037 0 0 0 -.51438-1.80694c-.03312-.08953-.063-.17941-.09819-.26789a11.63669 11.63669 0 0 0 -.80065-1.62366c-.05138-.08684-.103-.17193-.15648-.25737a11.73936 11.73936 0 0 0 -1.06633-1.44646c-.06062-.07011-.12406-.13635-.18644-.20517a11.76964 11.76964 0 0 0 -1.32568-1.261c-.05278-.0426-.10884-.07982-.16233-.12148a11.70925 11.70925 0 0 0 -1.60013-1.05966c-.01253-.00679-.026-.01205-.03863-.01872a11.62309 11.62309 0 0 0 -1.75169-.75478c-.06718-.023-.13108-.05114-.19885-.073a11.6 11.6 0 0 0 -1.81782-.41571c-.06636-.01007-.12734-.03547-.19405-.04436-1.65538-14.475-10.62886-27.8228-25.6919-37.99123-.28581-.193-.58542-.37277-.87439-.56272a25.622 25.622 0 0 0 -48.549-15.87365c-3.54225-.30266-7.12815-.47306-10.75256-.47306s-7.21044.1704-10.7528.47306a25.61548 25.61548 0 0 0 -48.55056 15.87341c-.28908.18995-.58869.36983-.8745.563-15.05743 10.16838-24.03653 23.51613-25.69003 37.99121-.06648.00889-.1271.03406-.19323.04412a11.60951 11.60951 0 0 0 -1.82086.41642c-.066.0213-.12851.04857-.19405.071a11.626 11.626 0 0 0 -1.75977.75829c-.01066.00585-.02236.01006-.033.0158a11.69975 11.69975 0 0 0 -1.60518 1.06294c-.05184.04049-.10627.07642-.15753.11774a11.77559 11.77559 0 0 0 -1.33118 1.26622c-.06.06625-.12137.13-.18.1978a11.72848 11.72848 0 0 0 -1.07265 1.455c-.05114.08169-.10053.16315-.14969.24612a11.62441 11.62441 0 0 0 -.80662 1.63583c-.03312.08334-.06133.16807-.09258.25234a11.54283 11.54283 0 0 0 -.518 1.81969c-.01229.06355-.01815.12851-.0295.19253a10.98209 10.98209 0 0 0 -.00807 4.01157c.013.07537.02036.15191.03464.2267a11.56056 11.56056 0 0 0 .49249 1.76141c.03582.09878.06976.19709.108.29458a11.628 11.628 0 0 0 .76753 1.58656c.05372.09258.1099.18223.16619.27328a11.7578 11.7578 0 0 0 1.03438 1.43359c.0536.06308.11153.12114.16654.18317a11.79068 11.79068 0 0 0 1.32568 1.29384c.01135.00937.024.01732.03535.02657a11.75133 11.75133 0 0 0 1.54902 1.06119c.05032.02914.09749.06191.14828.09023a11.63742 11.63742 0 0 0 1.68.76191c.08135.02973.16081.06122.243.08919a11.56313 11.56313 0 0 0 1.79243.45246c.04377.00749.08368.02528.12757.03219v20.48257a19.4727 19.4727 0 0 0 -5.29313 29.45021h-.03039c.32209.38634.67507.74459 1.02548 1.10495.13588.13974.25725.29247.39734.42812a19.7236 19.7236 0 0 0 1.72993 1.48251c.21769.16678.44954.31284.67425.47061.42227.29669.84993.58355 1.29572.84665.10768.06343.20411.14313.31308.20458a27.75334 27.75334 0 0 0 27.60394 25.21638h116.863a27.75387 27.75387 0 0 0 27.60581-25.21638c.11213-.0632.21126-.14513.322-.21044.43351-.25631.84934-.53556 1.26061-.82359.23618-.16514.4795-.31892.70784-.49413a19.71828 19.71828 0 0 0 1.67937-1.43885c.17357-.16713.32771-.35217.49495-.52562.32993-.3421.665-.67952.96954-1.04479h-.02862a19.47382 19.47382 0 0 0 -5.29324-29.44763v-10.32421h-.00387v-10.01476zm-70.12077-77.14711.00012-.00023a20.6395 20.6395 0 0 1 3.10488-4.486c.05173-.05711.10276-.11411.15507-.17076a20.68911 20.68911 0 0 1 4.05616-3.38565c.12055-.077.24414-.148.36633-.22261a20.56733 20.56733 0 0 1 2.00029-1.071c.123-.05747.24156-.12114.36585-.17626a20.45037 20.45037 0 0 1 2.42373-.89475c.14957-.04459.30383-.07549.45469-.11692a20.45893 20.45893 0 0 1 2.0966-.45411c.23221-.038.46277-.07631.69755-.1065a20.502 20.502 0 0 1 23.27707 20.44021c0 .57289-.03324 1.13713-.08567 1.696-.04073.49858-.10756.98838-.18305 1.47631l-.00023.00152a20.48355 20.48355 0 0 1 -1.41252 4.981c-.21442.49741-.45142.98253-.70281 1.45875-.1216.23033-.25432.45282-.38424.67777-.16748.29013-.33987.57641-.52081.85741-.14326.22237-.28768.443-.43924.65951-.21617.30886-.44393.608-.67613.90411-.13834.17626-.27059.35673-.41443.52831-.33952.4053-.69648.7948-1.06574 1.17259-.16385.16772-.33519.32677-.50466.48875q-.39676.37973-.81247.73839c-.17767.1525-.35463.30441-.53744.45094-.34947.28054-.70936.54762-1.077.80534-.11305.07923-.22026.1656-.335.24262-.474.31834-.96544.61163-1.46612.89053-.17357.09656-.35135.18515-.528.2768q-.55528.28843-1.12906.54375c-.182.08076-.3627.16245-.54738.238-.50373.20646-1.01565.39618-1.53846.563-.05372.01709-.10509.03909-.15893.05571-.57512.17825-1.1637.32408-1.75919.45212-.178.03827-.35837.06893-.53814.10252q-.67484.1264-1.36383.2081c-.18434.02188-.36738.04587-.55312.06284-.62615.05724-1.25768.09586-1.89881.09586a20.57727 20.57727 0 0 1 -20.49218-22.91c.00328-.028.00925-.055.01264-.083a20.46083 20.46083 0 0 1 2.11368-6.99097zm-50.41825-11.27314a20.71507 20.71507 0 0 1 2.64539.18831c.2349.03019.46546.06847.69778.1065a20.49546 20.49546 0 0 1 2.09684.45411c.15109.04143.30558.07221.45527.117a20.43365 20.43365 0 0 1 2.42361.89452c.12453.05524.24344.11914.3668.17673a20.54191 20.54191 0 0 1 1.99981 1.07062c.12231.07455.2459.14571.36656.22272a20.68712 20.68712 0 0 1 4.05675 3.386c.05208.0563.10287.11306.15437.16994a20.5682 20.5682 0 0 1 5.21963 11.47644c.00339.02844.00971.05595.013.08439a20.576 20.576 0 0 1 -20.49581 22.90976c-.641 0-1.2722-.03862-1.89823-.09586-.18562-.01685-.36855-.041-.55276-.06284q-.68941-.08181-1.36407-.20821c-.17954-.03359-.35943-.06414-.53721-.10229-.59548-.128-1.1843-.274-1.75942-.45235-.0529-.01639-.10322-.03792-.15589-.05466-.52362-.167-1.0366-.3572-1.54115-.564-.18468-.07561-.36539-.15742-.54738-.23817q-.57354-.25473-1.12742-.54317c-.17684-.09188-.355-.18048-.52889-.27727-.5008-.279-.99224-.57242-1.46624-.89088-.11295-.07584-.2184-.16081-.3297-.23876-.36984-.25912-.73195-.52807-1.08353-.81025-.18152-.14559-.35731-.29657-.53369-.448q-.41765-.359-.81458-.74037c-.16923-.16175-.34023-.32069-.50384-.48805-.367-.37557-.72177-.7632-1.05954-1.16581-.14642-.1745-.28136-.3579-.422-.5372-.23173-.29552-.45925-.59431-.67484-.90247-.15133-.21629-.29552-.43667-.43865-.65881-.18129-.28135-.35392-.56809-.52164-.85858-.12967-.2246-.262-.44662-.38341-.67648-.25163-.47657-.48863-.96193-.70316-1.45957a20.50058 20.50058 0 0 1 -1.59569-6.45964c-.05243-.5585-.08555-1.12227-.08555-1.69481a20.62844 20.62844 0 0 1 20.62848-20.62854zm-23.20135 31.46453a25.61706 25.61706 0 0 0 48.34084-15.8431c3.03911-.23326 6.1228-.36715 9.25449-.36715s6.21538.13389 9.25448.36715a25.61667 25.61667 0 0 0 48.33979 15.84275c12.9098 8.79254 21.43947 20.524 23.19164 33.57858h-161.57179c1.752-13.05434 10.28134-24.78569 23.19055-33.57823zm116.026 131.48868h-116.86305a22.71264 22.71264 0 0 1 -22.24961-18.167 19.4876 19.4876 0 0 0 4.21452.46733h152.93119a19.49747 19.49747 0 0 0 4.21814-.4678 22.71623 22.71623 0 0 1 -22.25124 18.16747zm32.56082-37.23459a14.56288 14.56288 0 0 1 -10.5158 13.95014c-.11446.03277-.2315.05911-.347.08918-.44287.11681-.895.20892-1.35342.28347-.17907.02867-.35732.06016-.53861.08216a14.43147 14.43147 0 0 1 -1.57789.10908c-.06566.00082-.12921.00983-.195.00983h-38.7065v.00363h-33.05893v-.00363h-81.16581c-.06578 0-.12933-.009-.195-.00983a14.42721 14.42721 0 0 1 -1.57778-.10908c-.18117-.022-.3593-.05349-.53837-.08216-.45843-.07467-.911-.16666-1.35389-.28358-.11539-.03-.23208-.0563-.34631-.08907a14.50641 14.50641 0 0 1 -3.75643-26.20815h96.95965l12.80083 12.79732 3.53944 3.54295 3.54284-3.54295 12.80106-12.79732h38.82408a14.49861 14.49861 0 0 1 6.75879 12.25801zm-172.12922-22.2764h162.27545v5.00732h-37.80772l-2.74511 2.74534h.00047l-11.52068 11.52384-11.52091-11.52384h.00058l-2.74523-2.74534h-95.94059v-5.00732zm-.00374-5.00721v-8.07908c2.05014 2.58793 5.59882 6.0603 11.59137 6.0603 5.9868 0 9.539-3.46816 11.58961-6.056 2.04851 2.58781 5.60094 6.056 11.58751 6.056s9.539-3.46816 11.59149-6.056c2.05038 2.58781 5.60269 6.056 11.59137 6.056 5.98482 0 9.537-3.46816 11.58938-6.056 2.04874 2.58781 5.60094 6.056 11.58763 6.056 5.98856 0 9.541-3.46816 11.5895-6.056 2.05236 2.58781 5.60479 6.056 11.58961 6.056 5.98845 0 9.53889-3.46816 11.58739-6.056 2.0526 2.58418 5.60293 6.056 11.59524 6.056 5.98868 0 9.54287-3.47179 11.59511-6.0596 2.04874 2.58781 5.60293 6.0596 11.59524 6.0596 6.001 0 9.54977-3.47834 11.59874-6.067v8.08575zm165.45523-15.02583h-3.3482c-.86514.06367-1.42317.65541-2.78654 2.53912-1.56912 2.17608-3.95106 5.45675-8.64 5.45675s-7.0673-3.28067-8.64028-5.45675c-1.36313-1.88371-1.92117-2.47545-2.78268-2.53912h-.3483c-.86128.06367-1.41568.65541-2.77882 2.53912-1.573 2.17608-3.94755 5.45675-8.63641 5.45675-4.69284 0-7.0673-3.28067-8.64028-5.45675-1.36313-1.88371-1.91754-2.47545-2.78267-2.53912h-.34446c-.85776.06367-1.41954.65541-2.78267 2.53912-1.56936 2.17608-3.94381 5.45675-8.63279 5.45675s-7.06343-3.28067-8.63454-5.45675c-1.36138-1.88371-1.91941-2.47545-2.77882-2.53912h-.34654c-.85941.06367-1.41744.65541-2.78081 2.53912-1.57111 2.17608-3.94919 5.45675-8.63829 5.45675s-7.06154-3.28067-8.63454-5.45675c-1.36126-1.88371-1.91941-2.47545-2.7808-2.53912h-.34456c-.8614.06367-1.41744.65541-2.77893 2.53912-1.573 2.17608-3.94744 5.45675-8.63642 5.45675-4.69272 0-7.06706-3.28067-8.63829-5.45675-1.36126-1.88371-1.91941-2.47545-2.7808-2.53912h-.3482c-.86139.06367-1.4158.65541-2.77893 2.53912-1.573 2.17608-3.94743 5.45675-8.63641 5.45675s-7.06346-3.28067-8.63466-5.45675c-1.36126-1.88371-1.9193-2.47545-2.78081-2.53912h-.34456c-.85952.06367-1.41556.65541-2.77893 2.53912-1.57111 2.17608-3.94556 5.45675-8.63442 5.45675s-7.06355-3.28067-8.63653-5.45675c-1.36138-1.88371-1.91942-2.47545-2.77882-2.53912h-3.3577a6.67955 6.67955 0 0 1 0-13.3591h168.62741a6.67955 6.67955 0 0 1 0 13.3591z" fill="#12110c" transform="translate(.14953 .13586)"/><path d="m177.138 113.461v-5.008h-162.275-.004v5.008h95.941l2.745 2.745h-.001l11.521 11.524 11.521-11.524h-.001l2.745-2.745z" fill="#fbc048"/><g transform="translate(.14953 .13586)"><path d="m172.50959 145.10786a14.43147 14.43147 0 0 0 1.57789-.10908c.18129-.022.35954-.05349.53861-.08216.45843-.07455.91055-.16666 1.35342-.28347.11551-.03007.23255-.05641.347-.08918a14.5043 14.5043 0 0 0 3.757-26.20815h-38.82405l-12.80106 12.79732-3.54284 3.54295-3.53944-3.54295-12.80083-12.79732h-96.95965a14.5219 14.5219 0 0 0 3.75643 26.20818c.11423.03277.23092.05911.34631.08907.44287.11692.89546.20891 1.35389.28358.17907.02867.3572.06016.53837.08216a14.42721 14.42721 0 0 0 1.57778.10908c.06566.00082.12921.00983.195.00983h81.16581v.00363h33.05893v-.00363h38.70644c.06578-.00003.12933-.00904.19499-.00986z" fill="#976037"/><path d="m176.63351 69.918c-.00269-.02013-.0041-.0405-.0069-.06063-.08977-.66114-.20587-1.31714-.33017-1.97126-.03651-.19194-.06893-.3847-.10837-.57594-.12968-.62919-.27925-1.25405-.44018-1.87611-.05314-.20575-.10627-.41115-.1628-.61608q-.25631-.928-.55792-1.845c-.06378-.19346-.131-.386-.19779-.57863-.21617-.624-.4431-1.24539-.69064-1.861-.06027-.14992-.12616-.29821-.18819-.44767-.27375-.65845-.55687-1.31421-.86573-1.96224l-.02177-.04354a47.05581 47.05581 0 0 0 -5.22384-8.42376c-.0749-.09714-.14618-.19568-.2219-.29247-.44451-.56822-.909-1.12813-1.382-1.68429-.131-.1539-.25994-.30874-.393-.46171q-.69134-.79491-1.42258-1.57158-.2356-.251-.47482-.50021-.73278-.763-1.50007-1.5092c-.16491-.15987-.33379-.3174-.50116-.476-.53041-.50267-1.068-1.00184-1.62272-1.49176-.13623-.12031-.278-.23758-.41571-.35719a69.65584 69.65584 0 0 0 -6.46011-4.97233 25.6165 25.6165 0 0 1 -48.33979-15.84275q-2.2673-.174-4.56831-.26966l-.03031-.00152q-2.31049-.09375-4.65586-.096-2.34579 0-4.65621.096l-.02891.00152q-2.30154.09393-4.56937.26966a25.61733 25.61733 0 0 1 -48.34084 15.8431 69.5496 69.5496 0 0 0 -6.62054 5.10773c-.069.06027-.14056.11926-.20914.17977-.60906.537-1.19952 1.08376-1.77955 1.63606-.10932.10405-.22027.20728-.32853.31191q-.84548.81721-1.64659 1.65654-.15589.16291-.31015.32677-.80773.85776-1.57123 1.7359c-.072.08309-.142.16713-.21336.25046a47.12611 47.12611 0 0 0 -7.948 12.819l-.02188.052c-.29248.72141-.5605 1.44962-.81 2.18263-.02516.07373-.051.14734-.0756.2212q-.35848 1.07316-.65378 2.16179c-.02188.08052-.04271.161-.064.24168-.19522.73769-.37148 1.47994-.52258 2.22757-.00772.03827-.01392.07678-.02165.115-.155.77912-.288 1.563-.394 2.35222z" fill="#f3b04c"/><path d="m172.3146 150.12876h-152.93119a19.4876 19.4876 0 0 1 -4.21452-.46733c.063.31015.15239.61011.22788.91558.09035.36527.173.73359.28065 1.09172.10194.33894.22623.66758.34339.99962.11446.32431.22565.65.35415.96743.13331.329.28195.64955.43.97071.14161.3071.28487.61315.43959.91277.161.312.33145.61819.50642.92167q.25386.44011.52667.86713c.18644.29236.37616.58226.57547.86525.19779.28089.40635.553.61644.8243.207.26743.41208.5365.63048.79433.23618.27843.4871.54329.73628.81.21488.23022.42285.46722.6471.68842.34842.3435.716.66664 1.0861.98709.28323.24554.57278.48254.86818.714.37616.2947.75384.58776 1.14849.85871.23431.16092.48044.30464.721.45691.34233.21652.68467.4328 1.03906.63118.26111.14618.53041.27913.79784.41525.35193.17918.70644.35392 1.06878.51485.27633.12277.557.23723.83881.34924q.55968.22208 1.13362.41478c.28253.095.56611.18761.85356.27164.40378.118.81434.21956 1.22713.31541.27761.06449.55371.13331.83518.1875.46183.08883.93185.15367 1.40316.21418.24238.03113.48114.0735.72575.0969.7158.06835 1.43956.1092 2.17326.10967l.01522.0007h116.863c.73921 0 1.46835-.04143 2.18942-.11048.23875-.02294.47177-.06449.7083-.09469.47845-.06109.95526-.12687 1.42388-.21734.274-.05278.5427-.11984.81306-.18246.422-.09772.84161-.20165 1.25429-.32255.27784-.08134.55183-.17088.82511-.26252q.59355-.19908 1.17236-.42905c.26778-.10674.53439-.21535.797-.3318.38282-.16971.75758-.35393 1.12894-.54388.24695-.12628.496-.24894.73757-.384.38879-.21722.7653-.4534 1.13959-.69239.206-.13143.41782-.25432.61912-.39219.50022-.34257.98382-.707 1.45419-1.08751.06215-.05033.12968-.09422.19136-.14513.52374-.43292 1.02443-.89241 1.50709-1.36992.16619-.16432.31928-.3414.48032-.51087.31155-.3277.62053-.65786.91219-1.00371.17427-.20657.3373-.42239.50419-.63516.25854-.32958.51251-.663.75279-1.00687.1601-.22893.31284-.46323.46452-.69836q.33917-.52562.65-1.07031c.13659-.23969.27083-.48067.39887-.72586.20072-.38435.38645-.77725.5654-1.17412.107-.23735.21746-.4726.31647-.71416.18305-.44673.34444-.90412.49928-1.36454.06859-.20353.14642-.40273.20927-.60871.20446-.67133.38423-1.35354.52678-2.04956l.00059-.00234c.00245-.01194.00316-.02446.00561-.0364a19.49519 19.49519 0 0 1 -4.21451.46727z" fill="#f3b04c"/><path d="m38.15443 59.81717a3.49029 3.49029 0 1 1 2.88378 1.23969 3.50267 3.50267 0 0 1 -2.88378-1.23969m72.683-2.408a3.4793 3.4793 0 1 1 1.37449.20594 3.453 3.453 0 0 1 -1.37449-.20594m51.75839 1.92866a3.49526 3.49526 0 1 1 1.37452.2023 3.43684 3.43684 0 0 1 -1.37452-.2023m-100.85797 1.55048a3.50774 3.50774 0 1 1 4.60288 1.85023 3.36126 3.36126 0 0 1 -1.16665.27709 3.5029 3.5029 0 0 1 -3.43623-2.12732m21.91881.00384a3.50937 3.50937 0 1 1 4.60459 1.84639 3.37028 3.37028 0 0 1 -1.16855.27709 3.50134 3.50134 0 0 1 -3.436-2.12348m7.96028-20.5238a3.48781 3.48781 0 1 1 1.37832.2023 3.49915 3.49915 0 0 1 -1.37832-.2023" fill="#c58232"/><path d="m140.43172 62.98936a3.5019 3.5019 0 0 1 -2.82372-5.82376 3.62621 3.62621 0 0 1 4.95109-.2884 3.50031 3.50031 0 0 1 -2.12734 6.11216" fill="#c58232"/></g><circle cx="61.60643" cy="25.63959" fill="#fff" r="20.62852"/><path d="m61.45508 18.21944a7.28628 7.28628 0 1 0 7.28827 7.28429 7.28274 7.28274 0 0 0 -7.28827-7.28429z" fill="#12110b" transform="translate(.14953 .13586)"/><path d="m130.24111 4.87521a20.62852 20.62852 0 1 0 20.63238 20.62852 20.62653 20.62653 0 0 0 -20.63238-20.62852z" fill="#fff" transform="translate(.14953 .13586)"/><path d="m130.24111 18.21944a7.28628 7.28628 0 1 0 7.28826 7.28429 7.28274 7.28274 0 0 0 -7.28826-7.28429z" fill="#12110b" transform="translate(.14953 .13586)"/><path d="m176.9886 98.299v-3.07453c-2.049 2.58863-5.59777 6.067-11.59874 6.067-5.99231 0-9.5465-3.47179-11.59524-6.0596-2.05224 2.58781-5.60643 6.0596-11.59511 6.0596-5.99231 0-9.54264-3.47179-11.59524-6.056-2.0485 2.58781-5.59894 6.056-11.58739 6.056-5.98482 0-9.53725-3.46816-11.58961-6.056-2.04851 2.58781-5.60094 6.056-11.5895 6.056-5.98669 0-9.53889-3.46816-11.58763-6.056-2.05236 2.58781-5.60456 6.056-11.58938 6.056-5.98868 0-9.541-3.46816-11.59137-6.056-2.05248 2.58781-5.6048 6.056-11.59149 6.056s-9.539-3.46816-11.58751-6.056c-2.05061 2.58781-5.60281 6.056-11.58961 6.056-5.99255 0-9.54123-3.47237-11.59137-6.0603v8.07908h162.27919z" fill="#e43b2c" transform="translate(.14953 .13586)"/><path d="m180.16464 74.92529h-168.62741a6.67955 6.67955 0 0 0 0 13.3591h3.35768c.8594.06367 1.41744.65541 2.77882 2.53912 1.573 2.17608 3.94755 5.45675 8.63653 5.45675s7.06331-3.28067 8.63442-5.45675c1.36337-1.88371 1.91941-2.47545 2.77893-2.53912h.34456c.86151.06367 1.41955.65541 2.78081 2.53912 1.57122 2.17608 3.94556 5.45675 8.63466 5.45675s7.06343-3.28067 8.63641-5.45675c1.36313-1.88371 1.91754-2.47545 2.77893-2.53912h.34819c.86139.06367 1.41954.65541 2.7808 2.53912 1.57123 2.17608 3.94557 5.45675 8.63829 5.45675 4.689 0 7.06343-3.28067 8.63642-5.45675 1.36149-1.88371 1.91753-2.47545 2.77893-2.53912h.34456c.86139.06367 1.41954.65541 2.7808 2.53912 1.573 2.17608 3.94556 5.45675 8.63454 5.45675s7.06718-3.28067 8.63829-5.45675c1.36337-1.88371 1.9214-2.47545 2.78081-2.53912h.34654c.85941.06367 1.41744.65541 2.77882 2.53912 1.57111 2.17608 3.94556 5.45675 8.63454 5.45675s7.06343-3.28067 8.63279-5.45675c1.36313-1.88371 1.92491-2.47545 2.78267-2.53912h.34445c.86513.06367 1.41954.65541 2.78267 2.53912 1.573 2.17608 3.94744 5.45675 8.64028 5.45675 4.68886 0 7.06343-3.28067 8.63641-5.45675 1.36314-1.88371 1.91754-2.47545 2.77882-2.53912h.3483c.86151.06367 1.41955.65541 2.78268 2.53912 1.573 2.17608 3.9513 5.45675 8.64028 5.45675s7.07092-3.28067 8.64-5.45675c1.36337-1.88371 1.9214-2.47545 2.78654-2.53912h3.3482a6.67955 6.67955 0 0 0 0-13.3591z" fill="#b0c60c" transform="translate(.14953 .13586)"/></svg>